<svg width="525" height="229" viewBox="0 0 525 229" fill="none" xmlns="http://www.w3.org/2000/svg">
<path d="M133.285 37.8817V175.807C133.285 179.995 129.889 183.388 125.704 183.388C121.519 183.388 118.123 179.993 118.123 175.807V109.723C118.123 99.8194 111.791 91.3965 102.96 88.2752C100.59 87.4337 98.0367 86.9791 95.3788 86.9791C92.7209 86.9791 90.1678 87.4337 87.7975 88.2752C78.9627 91.3965 72.6349 99.8194 72.6349 109.723V200.607L44.3781 228.863L44.2413 229C32.8161 220.705 22.9444 210.104 15.4057 197.56C24.9223 193.041 29.6114 181.937 25.9308 171.838C22.252 161.739 11.5174 156.253 1.32614 158.915C-0.976658 144.45 -0.232729 129.964 3.18685 116.25C7.52613 117.759 12.3927 117.842 17.048 116.147C27.7684 112.239 33.2937 100.384 29.3859 89.6619C27.6903 85.0101 24.4962 81.3349 20.5511 78.9841C28.8497 67.5429 39.4617 57.6588 52.0197 50.113C56.5383 59.6296 67.6422 64.3186 77.7412 60.6381C87.8401 56.9593 93.3263 46.2247 90.6649 36.0334C105.116 33.7342 119.586 34.471 133.287 37.8835L133.285 37.8817Z" fill="#1C5E9D" fill-opacity="0.71"/>
<path d="M177.546 21.4425H163.611V175.807C163.611 188.208 157.654 199.222 148.448 206.135C144.041 209.447 138.887 211.819 133.285 212.957C130.837 213.454 128.3 213.715 125.704 213.715C123.108 213.715 120.575 213.454 118.123 212.957C112.519 211.819 107.367 209.448 102.96 206.135C93.7507 199.222 87.7975 188.207 87.7975 175.807V109.723C87.7975 105.535 91.1922 102.142 95.3788 102.142C99.5654 102.142 102.96 105.536 102.96 109.723V175.807C102.96 185.708 109.288 194.133 118.123 197.254C120.493 198.096 123.046 198.55 125.704 198.55C128.362 198.55 130.915 198.096 133.285 197.254C142.118 194.133 148.448 185.708 148.448 175.807V21.4425H134.658L148.448 7.65233L148.519 7.58131L156.1 0L177.546 21.4425Z" fill="#1C5E9D"/>
<path d="M220.943 177C211.858 177 204.902 174.417 200.072 169.25C195.357 164.083 193 156.793 193 147.378V82.6222C193 73.2074 195.357 65.9167 200.072 60.75C204.902 55.5833 211.858 53 220.943 53C230.027 53 236.926 55.5833 241.641 60.75C246.471 65.9167 248.885 73.2074 248.885 82.6222V95.3667H230.947V81.4167C230.947 73.9537 227.785 70.2222 221.46 70.2222C215.136 70.2222 211.973 73.9537 211.973 81.4167V148.756C211.973 156.104 215.136 159.778 221.46 159.778C227.785 159.778 230.947 156.104 230.947 148.756V130.328H248.885V147.378C248.885 156.793 246.471 164.083 241.641 169.25C236.926 174.417 230.027 177 220.943 177Z" fill="#3A3A3C"/>
<path d="M287.999 177C278.685 177 271.556 174.359 266.611 169.078C261.666 163.796 259.194 156.333 259.194 146.689V83.3111C259.194 73.6667 261.666 66.2037 266.611 60.9222C271.556 55.6407 278.685 53 287.999 53C297.313 53 304.443 55.6407 309.387 60.9222C314.332 66.2037 316.804 73.6667 316.804 83.3111V146.689C316.804 156.333 314.332 163.796 309.387 169.078C304.443 174.359 297.313 177 287.999 177ZM287.999 159.778C294.554 159.778 297.831 155.817 297.831 147.894V82.1056C297.831 74.1833 294.554 70.2222 287.999 70.2222C281.445 70.2222 278.168 74.1833 278.168 82.1056V147.894C278.168 155.817 281.445 159.778 287.999 159.778Z" fill="#3A3A3C"/>
<path d="M329.636 54.7222H353.439L371.895 126.883H372.24V54.7222H389.143V175.278H369.652L346.884 87.2722H346.539V175.278H329.636V54.7222Z" fill="#3A3A3C"/>
<path d="M398.243 54.7222H417.389L429.808 148.239H430.153L442.572 54.7222H459.993L441.71 175.278H416.527L398.243 54.7222Z" fill="#3A3A3C"/>
<path d="M496.195 177C486.881 177 479.751 174.359 474.807 169.078C469.862 163.796 467.39 156.333 467.39 146.689V83.3111C467.39 73.6667 469.862 66.2037 474.807 60.9222C479.751 55.6407 486.881 53 496.195 53C505.509 53 512.639 55.6407 517.583 60.9222C522.528 66.2037 525 73.6667 525 83.3111V146.689C525 156.333 522.528 163.796 517.583 169.078C512.639 174.359 505.509 177 496.195 177ZM496.195 159.778C502.749 159.778 506.027 155.817 506.027 147.894V82.1056C506.027 74.1833 502.749 70.2222 496.195 70.2222C489.64 70.2222 486.363 74.1833 486.363 82.1056V147.894C486.363 155.817 489.64 159.778 496.195 159.778Z" fill="#3A3A3C"/>
</svg>
